#define thermo_width 16
#define thermo_height 32
static unsigned char thermo_bits[] = {
   0x00, 0x00, 0x00, 0x00, 0xc0, 0x03, 0x20, 0x04, 0x20, 0x74, 0x20, 0x04,
   0x20, 0x04, 0x20, 0x34, 0x20, 0x04, 0x20, 0x04, 0x20, 0x74, 0x20, 0x04,
   0xa0, 0x05, 0xa0, 0x35, 0xa0, 0x05, 0xa0, 0x05, 0xa0, 0x75, 0xa0, 0x05,
   0xa0, 0x05, 0xa0, 0x35, 0xa0, 0x05, 0x90, 0x09, 0xc8, 0x13, 0xe8, 0x17,
   0xe8, 0x17, 0xe8, 0x17, 0xe8, 0x17, 0xc8, 0x13, 0x10, 0x08, 0xe0, 0x07,
   0x00, 0x00, 0x00, 0x00 };
